<svg width="1196" height="357" viewBox="0 0 1196 357" fill="none" xmlns="http://www.w3.org/2000/svg">
<path d="M102.218 72.7233C99.199 72.8433 97.7825 75.4835 97.4843 76.2836C96.8506 78.0037 97.9316 79.2438 99.0872 80.1639C99.6836 80.6439 100.392 80.964 101.1 81.164C102.442 81.484 103.225 81.764 104.492 81.764C106.207 81.804 107.81 80.9639 108.667 79.4838C109.674 77.7637 109.226 76.0836 108.481 75.1635C107.213 73.6434 106.207 72.5233 102.218 72.7233Z" fill="black"/>
<path d="M145.422 76.2035C145.422 76.2035 137.669 65.6827 122.497 63.6026C105.723 61.3224 98.1929 67.9229 86.1153 80.0838C83.9532 82.284 78.5481 86.3243 76.0879 87.9244C72.5094 90.2445 67.9616 90.0845 64.644 92.8047C60.059 96.565 59.2762 102.205 62.8175 106.286C64.1594 107.846 70.6082 115.646 80.5984 120.447C90.1039 124.967 105.126 126.167 110.569 126.287C117.278 126.487 118.844 130.608 127.231 137.328C131.369 140.648 136.439 144.129 141.583 146.329C163.427 155.769 184.451 163.41 199.138 183.811C210.022 198.933 216.024 216.214 217.291 235.175C218.298 250.456 217.701 265.657 213.042 280.419C206.668 300.42 195.634 316.941 179.903 329.542C160.519 345.023 124.063 345.143 107.475 344.943C87.3827 344.663 20.285 336.223 9.84753 320.341C2.80226 309.621 15.9236 252.617 25.0191 242.856C29.5668 237.975 45.5584 244.736 44.8502 253.457C44.552 257.457 40.8243 258.497 37.544 262.657C33.369 267.898 28.784 278.658 28.5976 279.018C28.1503 279.778 27.5911 280.579 27.2929 281.459C26.5101 283.619 25.8392 285.819 25.1682 288.059C25.0191 288.579 25.28 289.139 25.7646 289.259C27.9266 289.939 30.0887 290.859 32.288 290.939C43.5082 291.139 54.5421 289.419 64.0476 282.699C69.3781 278.938 73.5158 273.378 78.2127 268.578C78.8464 267.938 79.4055 267.218 80.3001 266.057C80.6729 265.577 81.4184 265.617 81.7166 266.137C84.4751 270.738 87.1217 274.818 89.3583 279.138C93.1978 286.579 99.3484 290.419 106.543 292.739C114.445 295.34 122.46 296.18 130.773 295.1C144.416 293.339 156.531 298.66 168.086 305.74C168.944 306.26 169.838 306.74 170.733 307.14C170.919 307.22 171.143 307.181 171.665 307.1C172.075 307.06 172.41 306.7 172.448 306.26C172.597 305.1 172.858 303.86 172.56 302.82C165.141 276.298 154.48 251.656 134.053 233.295C123.317 223.614 110.569 218.854 97.2237 214.854C70.2728 206.813 45.0738 194.852 24.9818 173.051C16.0727 163.41 9.92208 152.049 5.4489 139.248C-1.63364 119.047 -1.52181 98.8052 4.10694 78.7637C10.7422 55.082 23.7889 36.0806 43.2846 22.0395C57.2633 11.9988 72.3975 5.51831 88.5755 2.27807C111.65 -2.32227 128.461 0.437933 151.312 7.03842C160.967 9.83862 174.572 15.9191 180.686 19.2393C188.7 23.5996 193.062 27.8399 193.919 32.6403C194.776 37.4807 167.005 102.405 161.004 94.4849" fill="black"/>
<path d="M483.124 288.342V343.306H265.243V2.16113H330.924V288.342H483.124Z" fill="black"/>
<path d="M829.839 14.8677V356.013H772.359L599.396 114.435L605.174 356.013H544.786V14.8677H605.658L775.229 252.845L769.451 14.8677H829.839Z" fill="black"/>
<path d="M904.2 356.013H982.928L1016.1 297.328L979.014 238.324L904.2 356.013Z" fill="black"/>
<path d="M1196 14.8679H1117.23L1084.06 73.5522L1121.15 132.517L1196 14.8679Z" fill="black"/>
<path d="M1194.58 356.013L1087.3 186.481L1052 130.476L981.958 14.8679H910.276L1125.77 356.013H1122.08H1195.52H1194.58Z" fill="black"/>
</svg>
