<?xml version="1.0" encoding="UTF-8"?>
<svg xmlns="http://www.w3.org/2000/svg" viewBox="0 0 6477.07 873.34">
  <g>
    <g>
      <g>
        <g>
          <path
            d="M279.64,184.1c-8.26,.3-12.14,6.99-12.95,9.01-1.73,4.35,1.22,7.49,4.39,9.82,1.63,1.22,3.57,2.03,5.51,2.53,3.67,.81,5.81,1.52,9.28,1.52,4.69,.1,9.08-2.03,11.42-5.77,2.75-4.35,1.53-8.61-.51-10.94-3.47-3.85-6.22-6.68-17.13-6.18h-.01Z"
            fill="#fff" />
          <path
            d="M397.84,192.91s-21.21-26.63-62.72-31.9c-45.89-5.77-66.5,10.94-99.54,41.72-5.92,5.57-20.7,15.8-27.43,19.85-9.79,5.87-22.23,5.47-31.31,12.35-12.54,9.52-14.69,23.8-5,34.12,3.67,3.95,21.32,23.69,48.65,35.85,26.01,11.44,67.11,14.48,82,14.78,18.36,.51,22.64,10.94,45.59,27.95,11.32,8.4,25.19,17.21,39.27,22.78,59.77,23.9,117.29,43.24,157.47,94.88,29.78,38.28,46.2,82.02,49.67,130.01,2.75,38.68,1.12,77.16-11.63,114.52-17.44,50.63-47.63,92.45-90.67,124.34-53.03,39.19-152.78,39.49-198.16,38.98-54.97-.71-238.55-22.07-267.11-62.27-19.28-27.14,16.62-171.43,41.51-196.14,12.44-12.35,56.2,4.76,54.26,26.83-.82,10.13-11.01,12.76-19.99,23.29-11.42,13.26-23.97,40.5-24.48,41.41-1.22,1.92-2.75,3.95-3.57,6.18-2.14,5.47-3.98,11.04-5.81,16.71-.41,1.32,.31,2.73,1.63,3.04,5.92,1.72,11.83,4.05,17.85,4.25,30.7,.51,60.89-3.85,86.89-20.86,14.58-9.52,25.91-23.59,38.76-35.74,1.73-1.62,3.26-3.44,5.71-6.38,1.02-1.22,3.06-1.11,3.88,.2,7.55,11.64,14.79,21.97,20.91,32.91,10.5,18.83,27.33,28.55,47.02,34.43,21.62,6.58,43.55,8.71,66.29,5.97,37.33-4.46,70.47,9.01,102.09,26.93,2.35,1.32,4.79,2.53,7.24,3.54,.51,.2,1.12,.1,2.55-.1,1.12-.1,2.04-1.01,2.14-2.13,.41-2.94,1.12-6.08,.31-8.71-20.3-67.13-49.46-129.51-105.35-175.99-29.37-24.5-64.25-36.55-100.76-46.68-73.74-20.35-142.68-50.63-197.65-105.81-24.38-24.4-41.2-53.16-53.44-85.56-19.38-51.13-19.07-102.37-3.67-153.1,18.15-59.94,53.85-108.04,107.19-143.58C156.68,30.36,198.08,13.96,242.35,5.76c63.13-11.64,109.13-4.66,171.65,12.05,26.42,7.09,63.64,22.48,80.37,30.88,21.93,11.04,33.86,21.77,36.21,33.92,2.35,12.25-73.64,176.59-90.06,156.54"
            fill="#fff" />
        </g>
      </g>
    </g>
  </g>
  <path
    d="M1248.22,731.23v142.02H711.56V.02h536.66V143.38h-356.86v217.59h306.68v140.69h-306.68v229.57h356.86Z"
    fill="#fff" />
  <path
    d="M1946.13,637.09h-297.4l-76.7,236.25h-179.7L1725.43,.02h161.24l337.07,873.32h-192.96l-84.65-236.25Zm-48.95-142.04l-105.66-297.28-96.48,297.28h202.14Z"
    fill="#fff" />
  <path d="M2971.83,732.63v140.71h-596.12V.02h179.7V732.63h416.42Z" fill="#fff" />
  <path
    d="M3897.07,.02V873.34h-157.27l-473.23-618.43,15.81,618.43h-165.22V.02h166.55l463.95,609.21L3731.85,.02h165.22Z"
    fill="#fff" />
  <path
    d="M4676.97,731.3v142.04h-536.66V.02h536.66V143.39h-356.86v217.61h306.47v140.71h-306.68v229.59"
    fill="#fff" />
  <path d="M6477.07,142.06h-311.98V873.34h-185.01V142.06h-310.66V.02h807.65V142.06Z" fill="#fff" />
  <g>
    <polygon points="4814.35 873.34 5029.75 873.34 5120.52 723.11 5019.04 572.06 4814.35 873.34"
      fill="#fff" />
    <polygon points="5612.72 .02 5397.22 .02 5306.45 150.25 5407.93 301.2 5612.72 .02" fill="#fff" />
    <polygon
      points="5608.84 873.34 5315.32 439.34 5218.74 295.97 5027.1 .02 4830.98 .02 5420.57 873.34 5410.48 873.34 5410.48 873.34 5611.39 873.34 5611.39 873.34 5608.84 873.34"
      fill="#fff" />
  </g>
</svg>