<?xml version="1.0" encoding="UTF-8"?>
<svg xmlns="http://www.w3.org/2000/svg" xmlns:xlink="http://www.w3.org/1999/xlink" width="70px" height="70px" viewBox="0 0 70 70" version="1.1">
<g id="surface1">
<path style=" stroke:none;fill-rule:nonzero;fill:rgb(27.058824%,26.27451%,92.54902%);fill-opacity:1;" d="M 70 35 C 70 54.328125 54.328125 70 35 70 C 15.671875 70 0 54.328125 0 35 C 0 15.671875 15.671875 0 35 0 C 54.328125 0 70 15.671875 70 35 Z M 70 35 "/>
<path style=" stroke:none;fill-rule:nonzero;fill:rgb(100%,100%,100%);fill-opacity:1;" d="M 21.246094 32.488281 L 23.140625 36.601562 L 25.03125 32.488281 L 26.933594 32.488281 L 23.125 40.320312 L 19.347656 32.488281 Z M 29.625 32.488281 L 29.625 39.816406 L 27.933594 39.816406 L 27.933594 32.488281 Z M 27.675781 29.4375 C 27.675781 29.140625 27.785156 28.886719 28 28.671875 C 28.214844 28.453125 28.472656 28.347656 28.773438 28.347656 C 29.082031 28.347656 29.34375 28.453125 29.558594 28.671875 C 29.773438 28.882812 29.882812 29.140625 29.882812 29.445312 C 29.882812 29.753906 29.773438 30.011719 29.558594 30.230469 C 29.347656 30.445312 29.089844 30.550781 28.78125 30.550781 C 28.476562 30.550781 28.214844 30.445312 28 30.230469 C 27.785156 30.011719 27.675781 29.75 27.675781 29.4375 Z M 38.292969 36.550781 L 33.039062 36.550781 C 33.082031 37.152344 33.28125 37.632812 33.625 37.988281 C 33.972656 38.339844 34.414062 38.515625 34.957031 38.515625 C 35.378906 38.515625 35.726562 38.414062 36.003906 38.214844 C 36.273438 38.011719 36.582031 37.640625 36.929688 37.101562 L 38.359375 37.898438 C 38.136719 38.273438 37.90625 38.597656 37.660156 38.867188 C 37.414062 39.132812 37.148438 39.355469 36.871094 39.53125 C 36.589844 39.699219 36.285156 39.828125 35.957031 39.90625 C 35.632812 39.988281 35.277344 40.027344 34.898438 40.027344 C 33.804688 40.027344 32.925781 39.675781 32.261719 38.972656 C 31.601562 38.265625 31.269531 37.328125 31.269531 36.160156 C 31.269531 35 31.589844 34.0625 32.234375 33.34375 C 32.878906 32.636719 33.738281 32.28125 34.808594 32.28125 C 35.886719 32.28125 36.738281 32.625 37.367188 33.3125 C 37.988281 33.996094 38.300781 34.941406 38.300781 36.152344 Z M 36.554688 35.164062 C 36.316406 34.261719 35.746094 33.8125 34.84375 33.8125 C 34.640625 33.8125 34.445312 33.84375 34.265625 33.910156 C 34.085938 33.96875 33.917969 34.058594 33.769531 34.179688 C 33.625 34.296875 33.496094 34.4375 33.390625 34.601562 C 33.285156 34.765625 33.207031 34.953125 33.152344 35.164062 Z M 40.671875 32.488281 L 42.59375 36.671875 L 44.664062 31.816406 L 46.746094 36.671875 L 48.644531 32.488281 L 50.539062 32.488281 L 46.703125 40.367188 L 44.664062 35.648438 L 42.601562 40.367188 L 38.769531 32.488281 Z M 40.671875 32.488281 "/>
</g>
</svg>
